<svg xmlns="http://www.w3.org/2000/svg" xmlns:xlink="http://www.w3.org/1999/xlink" width="375" viewBox="0 0 375 375" height="375" version="1.0"><defs><g id="g"><path d="M 16.921875 -30.359375 C 19.660156 -30.359375 22.039062 -29.898438 24.0625 -28.984375 C 26.09375 -28.078125 27.65625 -26.78125 28.75 -25.09375 C 29.851562 -23.40625 30.40625 -21.414062 30.40625 -19.125 C 30.40625 -16.84375 29.851562 -14.863281 28.75 -13.1875 C 27.65625 -11.507812 26.09375 -10.210938 24.0625 -9.296875 C 22.039062 -8.390625 19.660156 -7.9375 16.921875 -7.9375 L 11.625 -7.9375 L 11.625 0 L 3.03125 0 L 3.03125 -30.359375 Z M 16.390625 -14.703125 C 18.160156 -14.703125 19.492188 -15.082031 20.390625 -15.84375 C 21.285156 -16.613281 21.734375 -17.707031 21.734375 -19.125 C 21.734375 -20.539062 21.285156 -21.640625 20.390625 -22.421875 C 19.492188 -23.203125 18.160156 -23.59375 16.390625 -23.59375 L 11.625 -23.59375 L 11.625 -14.703125 Z M 16.390625 -14.703125"/></g><g id="h"><path d="M 27.40625 -6.640625 L 27.40625 0 L 3.03125 0 L 3.03125 -30.359375 L 26.84375 -30.359375 L 26.84375 -23.71875 L 11.53125 -23.71875 L 11.53125 -18.609375 L 25.03125 -18.609375 L 25.03125 -12.1875 L 11.53125 -12.1875 L 11.53125 -6.640625 Z M 27.40625 -6.640625"/></g><g id="i"><path d="M 9.5 -23.546875 L 0.171875 -23.546875 L 0.171875 -30.359375 L 27.375 -30.359375 L 27.375 -23.546875 L 18.09375 -23.546875 L 18.09375 0 L 9.5 0 Z M 9.5 -23.546875"/></g><g id="j"><path d="M 33.828125 -30.359375 L 20.8125 0 L 12.359375 0 L -0.609375 -30.359375 L 8.671875 -30.359375 L 16.921875 -10.578125 L 25.328125 -30.359375 Z M 33.828125 -30.359375"/></g><g id="k"><path d="M 5.234375 -9.15625 C 5.878906 -9.15625 6.507812 -9.03125 7.125 -8.78125 C 7.738281 -8.539062 8.265625 -8.195312 8.703125 -7.75 L 7.8125 -6.640625 C 7.476562 -6.992188 7.082031 -7.273438 6.625 -7.484375 C 6.175781 -7.691406 5.722656 -7.796875 5.265625 -7.796875 C 4.347656 -7.796875 3.570312 -7.484375 2.9375 -6.859375 C 2.3125 -6.234375 2 -5.476562 2 -4.59375 C 2 -3.6875 2.3125 -2.921875 2.9375 -2.296875 C 3.570312 -1.679688 4.347656 -1.375 5.265625 -1.375 C 6.210938 -1.375 7.0625 -1.734375 7.8125 -2.453125 L 8.71875 -1.4375 C 8.25 -0.976562 7.703125 -0.613281 7.078125 -0.34375 C 6.453125 -0.0703125 5.820312 0.0625 5.1875 0.0625 C 3.84375 0.0625 2.710938 -0.378906 1.796875 -1.265625 C 0.890625 -2.160156 0.4375 -3.265625 0.4375 -4.578125 C 0.4375 -5.867188 0.898438 -6.953125 1.828125 -7.828125 C 2.753906 -8.710938 3.890625 -9.15625 5.234375 -9.15625 Z M 5.234375 -9.15625"/></g><g id="l"><path d="M 2.734375 -1.390625 L 6.6875 -1.390625 L 6.6875 0 L 1.203125 0 L 1.203125 -9.125 L 2.734375 -9.125 Z M 2.734375 -1.390625"/></g><g id="m"><path d="M 2.734375 0 L 1.203125 0 L 1.203125 -9.125 L 2.734375 -9.125 Z M 2.734375 0"/></g><g id="n"><path d="M 9.109375 0 L 7.59375 0 L 2.734375 -6.546875 L 2.734375 0 L 1.203125 0 L 1.203125 -9.125 L 2.703125 -9.125 L 7.59375 -2.5625 L 7.59375 -9.125 L 9.109375 -9.125 Z M 9.109375 0"/></g><g id="o"><path d="M 7.09375 -2.0625 L 2.484375 -2.0625 L 1.609375 0 L 0.015625 0 L 4.046875 -9.125 L 5.609375 -9.125 L 9.609375 0 L 7.96875 0 Z M 6.5 -3.421875 L 4.78125 -7.484375 L 3.0625 -3.421875 Z M 6.5 -3.421875"/></g><g id="q"><path d="M 7.71875 -7.734375 L 2.734375 -7.734375 L 2.734375 -5.28125 L 7.1875 -5.28125 L 7.1875 -3.890625 L 2.734375 -3.890625 L 2.734375 -1.375 L 7.875 -1.375 L 7.875 0 L 1.203125 0 L 1.203125 -9.125 L 7.71875 -9.125 Z M 7.71875 -7.734375"/></g><g id="r"><path d="M 1.203125 -9.125 L 4.828125 -9.125 C 5.984375 -9.125 6.875 -8.851562 7.5 -8.3125 C 8.125 -7.769531 8.4375 -7 8.4375 -6 C 8.4375 -4.96875 8.125 -4.164062 7.5 -3.59375 C 6.875 -3.03125 5.984375 -2.75 4.828125 -2.75 L 2.734375 -2.75 L 2.734375 0 L 1.203125 0 Z M 2.734375 -7.734375 L 2.734375 -4.125 L 4.765625 -4.125 C 6.234375 -4.125 6.96875 -4.738281 6.96875 -5.96875 C 6.96875 -7.144531 6.234375 -7.734375 4.765625 -7.734375 Z M 2.734375 -7.734375"/></g><g id="s"><path d="M 7.421875 -7.734375 L 4.53125 -7.734375 L 4.53125 0 L 3 0 L 3 -7.734375 L 0.125 -7.734375 L 0.125 -9.125 L 7.421875 -9.125 Z M 7.421875 -7.734375"/></g><g id="t"><path d="M 4.203125 -9.1875 C 5.378906 -9.1875 6.441406 -8.875 7.390625 -8.25 L 6.75 -6.890625 C 5.820312 -7.453125 4.929688 -7.734375 4.078125 -7.734375 C 3.617188 -7.734375 3.253906 -7.648438 2.984375 -7.484375 C 2.722656 -7.328125 2.59375 -7.09375 2.59375 -6.78125 C 2.59375 -6.476562 2.710938 -6.21875 2.953125 -6 C 3.203125 -5.789062 3.507812 -5.632812 3.875 -5.53125 C 4.238281 -5.4375 4.628906 -5.3125 5.046875 -5.15625 C 5.472656 -5.007812 5.867188 -4.851562 6.234375 -4.6875 C 6.609375 -4.519531 6.910156 -4.253906 7.140625 -3.890625 C 7.378906 -3.523438 7.5 -3.085938 7.5 -2.578125 C 7.5 -1.773438 7.179688 -1.132812 6.546875 -0.65625 C 5.910156 -0.1875 5.082031 0.046875 4.0625 0.046875 C 3.363281 0.046875 2.6875 -0.0820312 2.03125 -0.34375 C 1.382812 -0.601562 0.820312 -0.953125 0.34375 -1.390625 L 1 -2.71875 C 1.457031 -2.289062 1.960938 -1.960938 2.515625 -1.734375 C 3.066406 -1.503906 3.59375 -1.390625 4.09375 -1.390625 C 4.632812 -1.390625 5.050781 -1.488281 5.34375 -1.6875 C 5.644531 -1.882812 5.796875 -2.15625 5.796875 -2.5 C 5.796875 -2.8125 5.671875 -3.070312 5.421875 -3.28125 C 5.179688 -3.5 4.878906 -3.65625 4.515625 -3.75 C 4.148438 -3.851562 3.753906 -3.976562 3.328125 -4.125 C 2.910156 -4.269531 2.519531 -4.421875 2.15625 -4.578125 C 1.789062 -4.742188 1.484375 -5.003906 1.234375 -5.359375 C 0.992188 -5.710938 0.875 -6.140625 0.875 -6.640625 C 0.875 -7.421875 1.175781 -8.039062 1.78125 -8.5 C 2.394531 -8.957031 3.203125 -9.1875 4.203125 -9.1875 Z M 4.203125 -9.1875"/></g><g id="u"><path d="M 9.109375 0 L 7.578125 0 L 7.578125 -3.78125 L 2.734375 -3.78125 L 2.734375 0 L 1.203125 0 L 1.203125 -9.125 L 2.734375 -9.125 L 2.734375 -5.15625 L 7.578125 -5.15625 L 7.578125 -9.125 L 9.109375 -9.125 Z M 9.109375 0"/></g><g id="v"><path d="M 1.828125 -7.828125 C 2.765625 -8.710938 3.914062 -9.15625 5.28125 -9.15625 C 6.644531 -9.15625 7.789062 -8.710938 8.71875 -7.828125 C 9.644531 -6.953125 10.109375 -5.863281 10.109375 -4.5625 C 10.109375 -3.257812 9.644531 -2.160156 8.71875 -1.265625 C 7.789062 -0.378906 6.644531 0.0625 5.28125 0.0625 C 3.914062 0.0625 2.765625 -0.378906 1.828125 -1.265625 C 0.898438 -2.160156 0.4375 -3.257812 0.4375 -4.5625 C 0.4375 -5.863281 0.898438 -6.953125 1.828125 -7.828125 Z M 5.296875 -7.78125 C 4.390625 -7.78125 3.613281 -7.46875 2.96875 -6.84375 C 2.320312 -6.226562 2 -5.46875 2 -4.5625 C 2 -3.65625 2.320312 -2.882812 2.96875 -2.25 C 3.625 -1.625 4.398438 -1.3125 5.296875 -1.3125 C 6.191406 -1.3125 6.953125 -1.625 7.578125 -2.25 C 8.210938 -2.882812 8.53125 -3.65625 8.53125 -4.5625 C 8.53125 -5.46875 8.210938 -6.226562 7.578125 -6.84375 C 6.953125 -7.46875 6.191406 -7.78125 5.296875 -7.78125 Z M 5.296875 -7.78125"/></g><clipPath id="d"><path d="M 117 228 L 152 228 L 152 242.441406 L 117 242.441406 Z M 117 228"/></clipPath><clipPath id="e"><path d="M 0.519531 0.238281 L 267 0.238281 L 267 196 L 0.519531 196 Z M 0.519531 0.238281"/></clipPath><clipPath id="c"><path d="M0 0H280V243H0z"/></clipPath><clipPath id="f"><path d="M 80.570312 94.140625 L 304.820312 94.140625 L 304.820312 217.890625 L 80.570312 217.890625 Z M 80.570312 94.140625"/></clipPath><filter x="0%" y="0%" width="100%" xmlns:xlink="http://www.w3.org/1999/xlink" xlink:type="simple" xlink:actuate="onLoad" height="100%" id="a" xlink:show="other"><feColorMatrix values="0 0 0 0 1 0 0 0 0 1 0 0 0 0 1 0 0 0 1 0" color-interpolation-filters="sRGB"/></filter><mask id="b"><g filter="url(#a)"><path fill-opacity=".2" d="M-37.5 -37.5H412.5V412.5H-37.5z"/></g></mask></defs><g mask="url(#b)"><g><g clip-path="url(#c)" transform="translate(53 66)"><path fill="#CDAA90" d="M 15.035156 86.316406 C 15.523438 87.085938 15.992188 88.09375 16.386719 89.179688 C 16.832031 90.261719 17.199219 91.414062 17.421875 92.492188 C 17.976562 94.632812 17.925781 96.492188 16.738281 96.753906 C 19.203125 96.21875 19.125 96.296875 22.316406 100.429688 C 20.6875 100.847656 22.5625 104.960938 23.832031 107.550781 C 24.027344 104.914062 22.972656 101.847656 21.621094 95.734375 C 19.140625 93.46875 18.558594 88.980469 18.484375 84.753906 C 18.363281 80.480469 18.707031 76.527344 16.910156 73.878906 C 16.644531 74.796875 16.269531 75.71875 15.953125 76.679688 C 15.632812 77.636719 15.203125 78.617188 14.980469 79.652344 C 14.441406 81.707031 14.242188 83.953125 15.035156 86.316406"/><path fill="#CDAA90" d="M 12.832031 116.511719 L 14.132812 117 C 12.03125 113.742188 10.152344 110.339844 8.34375 106.859375 C 9.132812 107.835938 10.390625 110.101562 11.453125 112.148438 C 12.484375 114.214844 13.277344 116.105469 12.832031 116.511719"/><path fill="#CDAA90" d="M 34.078125 146.921875 C 31.972656 147.167969 34.671875 152.472656 33.292969 153.40625 C 34.671875 152.21875 36.238281 153.90625 37.910156 156.363281 C 39.59375 158.800781 41.449219 161.984375 43.277344 163.765625 L 46.726562 163.464844 C 45.882812 160.96875 43.34375 157.523438 40.289062 153.613281 C 37.242188 149.703125 33.730469 145.269531 30.902344 140.9375 C 31.917969 142.949219 32.992188 144.929688 34.078125 146.921875"/><path fill="#CDAA90" d="M 38.160156 155.640625 L 41.640625 157.078125 C 39.515625 155.273438 35.375 150.386719 38.160156 155.640625"/><path fill="#CDAA90" d="M 41.699219 144.117188 C 37.1875 137.664062 43.558594 148.65625 38.351562 142.625 C 40.304688 144.511719 42.300781 146.859375 41.699219 144.117188"/><path fill="#CDAA90" d="M 59.199219 173.144531 C 54.902344 169.308594 50.699219 165.363281 46.609375 161.285156 C 47.859375 163.355469 49.121094 165.421875 50.425781 167.464844 C 53.328125 169.414062 56.261719 171.296875 59.199219 173.144531"/><path fill="#CDAA90" d="M 55.546875 177.96875 C 53.96875 176.308594 52.261719 172.984375 55.203125 174.691406 C 57.921875 180.75 62.882812 181.296875 65.722656 186.675781 L 61.089844 183.460938 C 60.539062 184.550781 63.027344 186.183594 65.285156 187.839844 C 67.535156 189.503906 69.558594 191.199219 68.035156 192.609375 C 75.523438 195.617188 66.296875 186.160156 74.824219 191.265625 C 67.59375 185.617188 63.394531 180.207031 58.617188 174.214844 C 59.554688 176.382812 60.277344 176.945312 62 179.644531 C 58.066406 175.875 52.066406 171.402344 47.609375 166.777344 C 47.914062 171.175781 52.929688 173.03125 55.546875 177.96875"/><path fill="#CDAA90" d="M 75.25 197.773438 C 79.5 201.941406 86.4375 207.972656 89.679688 206.558594 C 86.351562 200.863281 83.832031 202.140625 80.832031 201.265625 C 79.804688 199.695312 75.550781 195.585938 78.4375 195.964844 C 78.636719 197.058594 74.0625 195.105469 75.25 197.773438"/><path fill="#CDAA90" d="M 92.621094 213.382812 L 97.734375 213.941406 L 95.28125 212.566406 L 96.285156 210.816406 C 95.601562 210.890625 91.675781 212.414062 87.253906 208.414062 C 88.648438 211.578125 90.628906 210.851562 92.621094 213.382812"/><path fill="#CDAA90" d="M 102.417969 203.609375 C 104.605469 207.140625 106.917969 207.953125 110.960938 210.101562 C 105.820312 206.488281 98.984375 200.769531 96.816406 200.433594 L 97.511719 200.371094 C 97.511719 200.371094 92.058594 197.695312 87.613281 196.40625 C 93.6875 199.195312 100.726562 208.6875 102.417969 203.609375"/><path fill="#CDAA90" d="M 96.386719 198.320312 L 100.933594 199.996094 L 96.386719 198.320312"/><path fill="#CDAA90" d="M 107.480469 224.238281 C 105.25 222.167969 103.042969 220.070312 100.851562 217.964844 L 102.078125 220 L 107.480469 224.238281"/><path fill="#CDAA90" d="M 104.121094 211.007812 C 109.5 215.761719 102.414062 206.871094 107.664062 211.082031 C 109.269531 211.984375 99.886719 205.019531 98.652344 205.664062 C 99.695312 207.179688 104.980469 208.730469 104.121094 211.007812"/><path fill="#CDAA90" d="M 112.09375 227.980469 C 114.515625 228.90625 116.9375 229.8125 119.363281 230.699219 C 116.9375 229.8125 114.515625 228.90625 112.09375 227.980469"/><g clip-path="url(#d)"><path fill="#CDAA90" d="M 128.253906 241.070312 C 128.835938 240.867188 129.390625 240.644531 129.910156 240.398438 C 130.6875 241.097656 131.519531 241.773438 132.386719 242.4375 C 135.699219 240.523438 139.292969 237.851562 142.640625 235.617188 C 143.488281 235.054688 144.300781 234.523438 145.128906 234.027344 C 145.953125 233.53125 146.585938 233.195312 147.3125 232.851562 C 148.722656 232.183594 150.113281 231.734375 151.476562 231.613281 C 149.390625 230.859375 151.664062 226.789062 146.199219 230.078125 C 145.972656 231.457031 144.128906 232.753906 145.070312 233.511719 C 142.347656 235.007812 142.214844 233.476562 140.449219 234.085938 C 138.53125 236.5625 135.273438 238.773438 132.386719 240.832031 C 130.199219 239.453125 128.191406 238.246094 126.53125 237.863281 C 128.320312 238.707031 128.644531 239.328125 129.910156 240.398438 C 127.945312 239.851562 126.324219 238.851562 125.125 237.832031 C 123.914062 236.796875 123.105469 235.730469 122.457031 234.832031 C 121.164062 233.042969 120.429688 231.894531 117.777344 232.625 C 118.15625 232.699219 118.527344 232.84375 118.890625 233.046875 C 119.242188 233.242188 119.597656 233.5 120.019531 233.84375 C 120.824219 234.507812 121.632812 235.347656 122.519531 236.253906 C 124.257812 238.050781 126.308594 240.128906 128.253906 241.070312"/></g><path fill="#CDAA90" d="M 129.683594 229.761719 C 128.511719 228.730469 127.398438 227.726562 126.339844 226.753906 C 127.351562 226.257812 128.277344 226.882812 129.199219 227.515625 C 130.109375 228.136719 130.996094 228.757812 131.328125 227.878906 C 131.285156 227.140625 130.613281 226.160156 130.175781 225.390625 C 129.722656 224.609375 129.496094 224.039062 130.03125 223.914062 C 129.242188 226.195312 128.175781 225.53125 127.363281 225.113281 C 126.945312 224.902344 126.546875 224.71875 126.195312 224.941406 C 125.839844 225.167969 125.472656 225.761719 125.28125 227.214844 C 124.953125 227.027344 124.664062 226.847656 124.410156 226.675781 C 124.109375 226.46875 123.792969 226.234375 123.550781 226.035156 C 123.050781 225.632812 122.710938 225.285156 122.472656 224.96875 C 122.003906 224.335938 121.953125 223.851562 121.898438 223.34375 C 121.792969 222.332031 121.664062 221.273438 118.15625 218.828125 L 114.742188 219.355469 C 118.9375 221.730469 121.0625 223.554688 123.195312 225.382812 C 123.703125 225.8125 124.210938 226.242188 124.738281 226.6875 C 125.152344 227.03125 125.609375 227.402344 126.085938 227.742188 C 127.050781 228.4375 128.234375 229.144531 129.683594 229.761719"/><path fill="#CDAA90" d="M 145.601562 223.167969 L 148.96875 222.578125 L 146.339844 221.816406 C 151.859375 217.511719 157.550781 215.8125 162.65625 214.359375 C 167.757812 212.910156 172.261719 211.707031 175.160156 208.476562 C 181.457031 199.382812 191.773438 196.0625 199.421875 188.097656 C 201.964844 183.050781 194.957031 190.855469 193.742188 190.367188 C 192.339844 186.664062 198.847656 188.210938 198.535156 184.3125 C 197.855469 183.121094 195.363281 184.539062 192.464844 186.476562 C 189.570312 188.40625 186.246094 190.84375 183.984375 191.789062 C 181.242188 194.761719 181.820312 195.324219 181.898438 197.277344 C 180.148438 196.847656 176.757812 199.199219 175.007812 198.730469 C 169.953125 205.777344 164.046875 205.511719 158.984375 212.378906 C 155.71875 212.390625 163.585938 208.234375 161.261719 209.695312 L 157.757812 212.519531 L 158.332031 212.484375 C 154.792969 217.925781 144.511719 223.195312 140.515625 224.34375 C 143.414062 223.109375 146.15625 223.179688 143.558594 225.847656 L 139.75 225.6875 C 138.90625 227.6875 137.816406 229.847656 136.238281 232.320312 C 138.054688 229.683594 140.054688 228.972656 142.386719 227.691406 C 144.714844 226.410156 146.398438 225.253906 145.601562 223.167969"/><path fill="#CDAA90" d="M 136.976562 224.167969 C 135.855469 224.578125 135.460938 224.925781 135.324219 225.328125 C 135.191406 225.726562 135.359375 226.148438 135.53125 226.578125 C 135.699219 227.003906 135.871094 227.433594 135.628906 227.9375 C 135.394531 228.429688 134.695312 229.023438 133.296875 229.636719 C 135.226562 228.242188 137.035156 226.894531 138.910156 225.464844 C 138.21875 225.066406 137.558594 224.644531 136.976562 224.167969"/><path fill="#CDAA90" d="M 175.078125 201.972656 L 179.667969 200.152344 C 175.613281 199.335938 172.863281 207.402344 175.078125 201.972656"/><path fill="#CDAA90" d="M 187.953125 190.589844 L 188.15625 194.484375 L 190.257812 190.25 Z M 187.953125 190.589844"/><path fill="#CDAA90" d="M 201.867188 182.378906 C 203.273438 178.8125 199.40625 180.882812 196.761719 183.964844 C 199.464844 181.507812 201.75 181.085938 201.867188 182.378906"/><path fill="#CDAA90" d="M 224.066406 167.175781 C 221.40625 170.238281 222.726562 169.011719 224.496094 167.777344 C 226.269531 166.558594 228.457031 165.257812 227.59375 168.398438 C 227.3125 166.734375 228.664062 162.511719 224.066406 167.175781"/><path fill="#CDAA90" d="M 246.15625 150.5 C 244.890625 153.355469 243.6875 154.011719 242.867188 153.921875 C 244.21875 152.1875 245.363281 150.835938 246.15625 150.5"/><path fill="#CDAA90" d="M 168.589844 216.710938 C 167.882812 217.296875 167.109375 217.914062 166.335938 218.398438 C 167.105469 217.820312 167.828125 217.28125 168.589844 216.710938"/><path fill="#CDAA90" d="M 170.054688 215.601562 C 169.570312 215.96875 169.074219 216.34375 168.589844 216.710938 C 169.121094 216.273438 169.613281 215.90625 170.054688 215.601562"/><path fill="#CDAA90" d="M 218.632812 179.699219 C 218.621094 179.714844 218.621094 179.714844 218.617188 179.722656 C 218.394531 179.8125 218.207031 179.914062 217.96875 179.988281 L 218.632812 179.699219"/><path fill="#CDAA90" d="M 22.832031 137.6875 C 21.871094 136.445312 21.167969 135.453125 20.6875 134.609375 C 21.398438 135.617188 22.121094 136.640625 22.828125 137.640625 C 22.835938 137.664062 22.832031 137.667969 22.832031 137.6875"/><path fill="#CDAA90" d="M 24.117188 131.835938 C 26.636719 134.078125 26.578125 136.128906 26.832031 138.664062 C 27.070312 141.191406 27.5625 144.253906 31.28125 148.152344 C 28.390625 144.949219 25.578125 141.390625 22.828125 137.640625 C 22.140625 130.886719 26.648438 140.738281 24.117188 131.835938"/><path fill="#CDAA90" d="M 84.222656 194.84375 C 84.347656 194.898438 84.433594 194.96875 84.558594 195.015625 C 85.101562 195.359375 84.792969 195.214844 84.222656 194.84375"/><path fill="#CDAA90" d="M 162.484375 19.964844 L 162.140625 19.207031 C 164.105469 18.625 165.992188 17.945312 167.957031 17.488281 C 166.089844 18.207031 164.316406 19.140625 162.484375 19.964844"/><path fill="#CDAA90" d="M 161.035156 19.070312 C 159.4375 19.730469 157.789062 20.335938 156.199219 21.074219 C 154.636719 21.84375 153.015625 22.566406 151.460938 23.414062 C 155.632812 20.332031 160.011719 17.515625 164.679688 15.234375 C 169.351562 12.988281 174.183594 11.015625 179.214844 9.660156 C 184.242188 8.324219 189.382812 7.304688 194.621094 6.96875 C 199.847656 6.640625 205.136719 6.738281 210.378906 7.535156 L 208.191406 8.410156 C 208.273438 8.609375 207.539062 8.652344 206.199219 8.574219 C 204.859375 8.539062 202.902344 8.480469 200.539062 8.414062 C 195.820312 8.414062 189.472656 8.828125 183.304688 10.144531 C 177.140625 11.429688 171.171875 13.46875 167.046875 15.460938 C 162.910156 17.429688 160.46875 18.988281 161.035156 19.070312"/><path fill="#CDAA90" d="M 159.195312 21.679688 C 158.371094 23.125 157.507812 24.1875 156.503906 24.972656 C 155.503906 25.761719 154.359375 26.269531 153.242188 26.914062 C 152.113281 27.535156 150.890625 28.140625 149.75 29.035156 C 148.644531 29.96875 147.570312 31.148438 146.6875 32.769531 C 149.007812 28.449219 150.605469 24.695312 155.003906 22.777344 C 156.402344 22.371094 157.769531 21.957031 159.195312 21.679688"/><path fill="#CDAA90" d="M 148.125 39.113281 C 146.5 40.234375 145.351562 42.230469 144.242188 44.113281 C 143.683594 45.0625 143.160156 45.957031 142.691406 46.75 C 142.234375 47.589844 141.808594 48.273438 141.425781 48.636719 C 141.355469 47.46875 141.558594 46.441406 141.9375 45.515625 C 142.3125 44.582031 142.9375 43.875 143.625 43.121094 C 144.316406 42.386719 145.109375 41.671875 145.882812 40.960938 C 146.632812 40.222656 147.503906 39.703125 148.125 39.113281"/><path fill="#CDAA90" d="M 145.703125 60.699219 C 145.222656 61.703125 144.726562 62.625 144.222656 63.511719 C 144.75 62.191406 145.214844 60.984375 145.542969 60.039062 L 145.703125 60.699219"/><path fill="#CDAA90" d="M 145.542969 60.039062 L 145.125 58.398438 C 146.324219 57.132812 146.230469 58.042969 145.542969 60.039062"/><path fill="#CDAA90" d="M 144.222656 63.511719 C 143.03125 66.503906 141.5625 70.117188 140.851562 72.527344 L 142.332031 70.078125 C 141.390625 72.277344 140.085938 75.320312 138.910156 78.066406 C 138.3125 79.417969 137.703125 80.730469 137.242188 81.621094 C 136.789062 82.5 136.414062 83.082031 136.179688 83.167969 C 136.632812 82.351562 137.027344 81.605469 137.371094 80.925781 C 137.742188 80.203125 138.070312 79.527344 138.339844 78.925781 C 138.886719 77.722656 139.234375 76.757812 139.449219 75.929688 C 139.875 74.277344 139.765625 73.15625 139.621094 71.648438 L 133.964844 81.992188 C 134.386719 76.902344 135.367188 75.097656 137.070312 73.09375 C 137.976562 72.023438 139.058594 70.890625 140.273438 69.363281 C 141.484375 67.84375 142.847656 65.933594 144.222656 63.511719"/><path fill="#CDAA90" d="M 125.988281 75.816406 L 127.660156 77.773438 L 129.144531 79.40625 C 130.117188 80.464844 131.054688 81.449219 131.957031 82.367188 C 132.695312 86.15625 131.851562 85.761719 130.453125 83.710938 C 129.761719 82.703125 128.945312 81.304688 128.171875 79.902344 C 127.429688 78.550781 126.5625 76.921875 125.988281 75.816406"/><path fill="#CDAA90" d="M 117.816406 55.273438 C 118.257812 55.589844 118.914062 56.671875 119.628906 57.773438 C 120.332031 58.894531 121.097656 60.117188 121.707031 61.089844 C 122.929688 63 123.523438 63.632812 122.027344 59.875 C 123.101562 60.875 124.105469 62.882812 125.191406 64.953125 C 123.324219 62.039062 122.972656 63.101562 122.386719 63.183594 C 122.089844 63.222656 121.71875 63 121.03125 61.859375 C 120.6875 61.289062 120.265625 60.496094 119.738281 59.402344 C 119.480469 58.847656 119.191406 58.230469 118.867188 57.535156 C 118.546875 56.859375 118.210938 56 117.816406 55.273438"/><path fill="#CDAA90" d="M 125.191406 64.953125 C 125.640625 65.648438 126.125 66.441406 126.761719 67.632812 C 126.222656 66.851562 125.695312 65.898438 125.191406 64.953125"/><path fill="#CDAA90" d="M 172.707031 18.71875 C 171.929688 18.714844 171.84375 18.445312 172.03125 18.0625 L 172.707031 18.71875"/><path fill="#CDAA90" d="M 108.523438 39.578125 L 107.097656 38.265625 C 107.507812 38.640625 107.921875 38.945312 108.332031 39.230469 L 108.523438 39.578125"/><g clip-path="url(#e)"><path fill="#CDAA90" d="M 266.566406 52.710938 C 265.992188 50.558594 265.417969 48.417969 264.785156 46.238281 C 264.035156 44.085938 263.152344 41.90625 262.179688 39.636719 C 259.894531 35.226562 257.054688 30.371094 252.097656 25.726562 C 251.078125 26.765625 250.175781 25.804688 249 24.917969 C 247.839844 24.011719 246.570312 23.035156 245.265625 23.828125 C 247.605469 26.148438 246.59375 25.085938 243.730469 22.496094 C 240.777344 19.996094 235.675781 16.253906 229.917969 13.648438 C 224.210938 10.925781 217.988281 9.53125 213.964844 9.050781 C 209.925781 8.527344 208.035156 8.835938 210.460938 9.417969 C 211.507812 9.164062 212.570312 8.957031 213.65625 8.734375 C 212.417969 9.492188 211.230469 10.226562 210.082031 11.035156 C 208.664062 10.667969 207.121094 10.175781 205.507812 9.675781 C 203.890625 9.289062 202.210938 8.882812 200.574219 8.570312 C 198.933594 8.363281 197.335938 8.234375 195.902344 8.265625 C 194.472656 8.351562 193.21875 8.664062 192.253906 9.164062 C 191.957031 9 194.949219 8.425781 199.648438 8.371094 C 204.332031 8.324219 210.71875 8.867188 216.871094 10.542969 C 223.027344 12.175781 228.882812 14.832031 232.804688 17.328125 C 233.308594 17.621094 233.789062 17.898438 234.238281 18.160156 C 234.671875 18.460938 235.078125 18.738281 235.460938 19 C 236.226562 19.515625 236.878906 19.953125 237.398438 20.304688 C 238.464844 20.972656 238.96875 21.316406 238.839844 21.078125 C 239.011719 21.800781 238.300781 21.601562 236.792969 20.953125 C 236.046875 20.617188 235.125 20.136719 234.054688 19.542969 C 232.992188 18.9375 231.664062 18.398438 230.269531 17.683594 C 227.453125 16.308594 223.945312 14.957031 220.074219 13.761719 C 216.160156 12.714844 211.882812 11.730469 207.484375 11.429688 C 198.703125 10.53125 189.734375 11.828125 183.167969 13.613281 C 176.574219 15.429688 172.3125 17.585938 172.03125 18.0625 L 170.625 16.714844 C 168.765625 18.035156 167.140625 19.292969 165.742188 20.664062 C 165.046875 21.328125 164.371094 21.976562 163.710938 22.609375 C 163.101562 23.285156 162.503906 23.949219 161.914062 24.605469 C 161.335938 25.261719 160.757812 25.878906 160.207031 26.53125 C 159.671875 27.183594 159.136719 27.835938 158.597656 28.496094 C 157.527344 29.761719 156.441406 31.046875 155.289062 32.40625 C 154.425781 32.164062 153.550781 31.929688 152.664062 31.707031 C 154.964844 30.398438 156.066406 29.140625 157.261719 27.910156 C 158.421875 26.640625 159.457031 25.109375 161.59375 23.351562 C 159.585938 24.609375 158.050781 25.6875 156.695312 26.546875 C 155.3125 27.371094 154.21875 28.125 153.152344 28.8125 C 152.09375 29.511719 151.054688 30.128906 150.046875 31.003906 C 149.042969 31.871094 147.871094 32.785156 146.691406 34.175781 C 147.238281 34.628906 147.832031 34.644531 148.339844 34.53125 C 148.867188 34.433594 149.3125 34.21875 149.515625 34.160156 C 149.71875 34.105469 149.683594 34.214844 149.253906 34.777344 C 149.027344 35.050781 148.746094 35.476562 148.347656 36.054688 C 147.871094 36.726562 147.257812 37.589844 146.488281 38.671875 C 145.050781 39.34375 145.109375 37.691406 144.683594 36.902344 C 144.484375 36.496094 144.183594 36.273438 143.613281 36.53125 C 143.0625 36.816406 142.300781 37.605469 141.058594 39.300781 C 140.203125 40.121094 139.621094 40.953125 139.105469 41.722656 C 138.59375 42.492188 138.179688 43.222656 137.824219 43.9375 C 137.121094 45.425781 136.800781 47.03125 136.378906 48.683594 C 135.992188 50.351562 135.550781 52.121094 134.949219 54.121094 C 134.378906 56.121094 133.582031 58.347656 132.386719 60.828125 C 132.347656 60.765625 132.304688 60.683594 132.257812 60.601562 L 132.386719 60.9375 L 135.800781 56.617188 C 134.851562 58.441406 133.679688 61.15625 132.386719 63.640625 C 130.863281 60.792969 129.449219 57.398438 128.464844 54.078125 C 129.539062 55.992188 131.007812 58.496094 132.386719 59.929688 C 134.191406 54.980469 135.441406 49.707031 135.121094 47.40625 C 134.378906 48.980469 133.449219 50.945312 132.386719 52.753906 C 131.621094 51.105469 130.832031 49.398438 130.121094 47.871094 C 129.328125 46.417969 128.636719 45.191406 128.140625 44.460938 C 128.625 44.144531 129.074219 43.769531 129.484375 43.335938 C 128.875 40.800781 128.308594 40.214844 127.453125 39.507812 C 126.640625 38.835938 125.726562 37.878906 124.914062 35.691406 C 123.535156 34.914062 123.4375 35.882812 123.621094 37.125 C 123.78125 38.351562 124.222656 39.816406 123.265625 39.335938 C 123.214844 38.984375 122.871094 38.300781 122.382812 37.449219 C 122.136719 37.027344 121.859375 36.558594 121.539062 36.085938 C 121.199219 35.632812 120.832031 35.164062 120.449219 34.703125 C 119.683594 33.800781 118.828125 32.785156 117.886719 32.039062 C 116.957031 31.300781 116.058594 30.730469 115.316406 30.5 C 114.695312 32.773438 116.617188 33.9375 118.839844 35.863281 C 119.410156 36.339844 119.992188 36.832031 120.554688 37.351562 C 121.089844 37.90625 121.585938 38.511719 122.050781 39.175781 C 122.964844 40.535156 123.753906 42.078125 124.144531 44.644531 C 123.378906 43.179688 122.5 41.9375 121.671875 40.660156 C 120.832031 39.402344 120.046875 38.121094 119.125 37.046875 C 117.539062 36.871094 117.277344 37.324219 117.851562 38.292969 C 118.125 38.789062 118.636719 39.328125 119.171875 40.050781 C 119.703125 40.78125 120.328125 41.578125 120.972656 42.378906 C 121.609375 43.1875 122.277344 43.976562 122.859375 44.773438 C 123.417969 45.617188 123.917969 46.421875 124.300781 47.148438 C 125.058594 48.585938 125.371094 49.796875 124.617188 50.230469 C 123.894531 50.125 123.203125 49.652344 122.5625 48.96875 C 122.242188 48.625 121.929688 48.226562 121.632812 47.792969 C 121.332031 47.371094 121.023438 46.96875 120.738281 46.511719 C 119.566406 44.726562 118.652344 42.511719 117.710938 40.652344 C 116.730469 38.890625 115.632812 37.222656 114.785156 36.40625 C 113.769531 35.519531 112.429688 35.011719 110.632812 35.207031 C 111.070312 35.949219 111.867188 36.9375 112.789062 38 C 113.019531 38.265625 113.222656 38.566406 113.449219 38.855469 L 113.808594 39.316406 L 114.328125 39.9375 C 115.011719 40.726562 115.730469 41.707031 116.40625 42.570312 C 118.863281 46.523438 120.808594 50.191406 119.832031 50.078125 C 119.128906 48.339844 118.378906 47.070312 117.535156 45.953125 C 116.691406 44.84375 115.792969 43.820312 114.613281 43.054688 C 114.039062 42.640625 113.4375 42.191406 112.816406 41.820312 C 112.507812 41.621094 112.1875 41.414062 111.863281 41.207031 C 111.597656 41.058594 111.410156 40.980469 111.175781 40.855469 C 110.308594 40.375 109.28125 39.941406 108.332031 39.230469 C 107.386719 37.421875 106.191406 35.804688 105.046875 34.046875 C 102.230469 33.675781 103.9375 34.796875 104.871094 36.671875 C 102.289062 33.128906 97.300781 29.976562 91.613281 27.511719 C 85.898438 24.996094 79.605469 23.140625 73.746094 20.859375 C 70.101562 20.707031 69.855469 21.238281 70.074219 21.792969 C 70.292969 22.375 70.945312 23.109375 69.332031 23.695312 C 68.460938 22.945312 67.394531 22.632812 66.226562 22.441406 C 65.644531 22.351562 65.039062 22.300781 64.421875 22.285156 C 63.808594 22.3125 63.1875 22.386719 62.566406 22.46875 C 61.324219 22.625 60.09375 22.855469 58.964844 23.195312 C 57.84375 23.523438 56.765625 23.683594 55.867188 23.90625 C 54.714844 23.972656 53.363281 26.753906 54.585938 27.539062 L 56.660156 26.707031 C 57.355469 26.425781 58.089844 26.257812 58.808594 26.019531 C 59.539062 25.8125 60.261719 25.53125 61.011719 25.367188 L 63.28125 24.863281 C 63.085938 25.535156 63.355469 26.398438 64.035156 27.03125 C 64.71875 27.644531 65.820312 28.203125 67.386719 28.058594 C 66.882812 26.851562 67.398438 26.40625 68.507812 26.429688 C 69.0625 26.464844 69.757812 26.609375 70.53125 26.800781 C 71.300781 26.988281 72.144531 27.210938 73.003906 27.546875 C 73.863281 27.851562 74.734375 28.148438 75.578125 28.378906 C 76.414062 28.65625 77.214844 28.90625 77.945312 29.003906 C 79.40625 29.175781 80.570312 28.984375 81.105469 27.71875 L 80.3125 30.082031 C 84.203125 30.488281 88.0625 31.488281 91.910156 32.6875 L 91.742188 32.222656 C 91.640625 32.402344 92.199219 32.6875 93.183594 33.074219 C 93.683594 33.261719 94.28125 33.484375 94.957031 33.738281 C 95.613281 34.027344 96.34375 34.351562 97.125 34.695312 C 98.722656 35.335938 100.351562 36.347656 101.992188 37.339844 C 102.777344 37.878906 103.511719 38.480469 104.222656 39.070312 C 104.933594 39.652344 105.578125 40.269531 106.085938 40.949219 C 105.84375 40.863281 105.515625 40.660156 105.128906 40.386719 C 104.726562 40.132812 104.25 39.824219 103.757812 39.476562 C 102.761719 38.792969 101.703125 37.941406 100.710938 37.441406 C 98.765625 36.355469 97.648438 36.125 99.492188 39.046875 C 98.289062 38.6875 97.109375 37.925781 95.703125 37.164062 C 95.011719 36.765625 94.308594 36.300781 93.570312 35.816406 C 92.800781 35.382812 92.011719 34.914062 91.191406 34.417969 C 87.894531 32.535156 83.917969 30.597656 79.585938 30.027344 L 80.730469 32.121094 C 76.179688 32.015625 71.390625 30.96875 66.390625 30.457031 C 61.429688 29.921875 56.246094 29.996094 52.074219 31.589844 C 52.703125 30.636719 53.351562 29.597656 54.085938 28.640625 C 53.222656 28.613281 52.308594 28.640625 51.335938 28.625 C 50.855469 28.632812 50.34375 28.605469 49.863281 28.664062 C 49.386719 28.726562 48.90625 28.796875 48.429688 28.890625 C 46.492188 29.175781 44.8125 30.140625 43.851562 31.640625 C 47.433594 29.808594 46.082031 31.890625 45.925781 33.066406 C 44.867188 33.832031 43.800781 34.78125 42.515625 35.558594 C 41.875 35.957031 41.296875 36.480469 40.632812 36.921875 C 40.304688 37.148438 39.96875 37.375 39.632812 37.605469 C 39.296875 37.839844 39.003906 38.132812 38.675781 38.394531 C 36.003906 40.378906 33.511719 43.152344 31.785156 46.324219 C 31.785156 46.324219 31.578125 45.742188 31.128906 45.808594 L 30.351562 47.601562 L 29.960938 48.484375 C 29.84375 48.785156 29.75 49.113281 29.644531 49.425781 C 29.25 50.710938 28.753906 51.878906 28.429688 53.183594 C 27.527344 54.832031 26.550781 55.773438 25.621094 56.617188 C 24.714844 57.480469 23.722656 58.132812 22.574219 59.070312 C 22.53125 59.449219 22.382812 59.949219 22.296875 60.464844 C 22.21875 60.980469 22.136719 61.519531 22.109375 61.976562 C 22.054688 62.894531 22.21875 63.488281 23.054688 63.023438 C 23.386719 62.335938 23.707031 61.65625 23.707031 61.148438 C 24.378906 63.445312 23.988281 64.015625 23.542969 64.765625 C 23.082031 65.492188 22.382812 66.363281 22.777344 68.964844 C 22.046875 66.898438 21.257812 67.019531 20.394531 67.65625 C 19.53125 68.28125 18.566406 69.40625 17.539062 69.027344 C 17.675781 72.296875 18.601562 72.472656 19.621094 72.023438 C 20.640625 71.566406 21.722656 70.511719 22.171875 70.9375 C 21.152344 74.4375 20.464844 76.554688 19.800781 78.710938 C 19.535156 79.800781 19.273438 80.90625 19.117188 82.238281 C 19.027344 83.574219 18.933594 85.132812 19.179688 87.132812 C 20.507812 87.371094 19.285156 81.433594 20.867188 80.71875 C 20.71875 81.800781 20.828125 82.992188 20.972656 83.945312 C 21.105469 84.894531 21.386719 85.613281 21.664062 85.773438 C 21.695312 84.96875 21.8125 84.175781 21.902344 83.390625 C 22.003906 82.605469 22.054688 81.820312 22.210938 81.054688 C 21.203125 88.878906 22.761719 97.109375 27.316406 105.535156 L 27.652344 104.59375 C 28.375 106.414062 29.113281 108.238281 29.9375 110.050781 L 26.792969 109.09375 C 28.683594 111.792969 28.28125 115.976562 30.894531 116.648438 L 30.484375 115.484375 C 31.371094 116.585938 32.222656 117.691406 33.125 118.777344 C 31.71875 117.925781 30.359375 117.035156 28.953125 116.136719 C 29.722656 118.742188 32.109375 121.101562 34.902344 123.636719 C 37.660156 126.191406 40.8125 128.917969 43.121094 132.632812 C 42.285156 134.363281 39.84375 131.414062 37.261719 128.113281 C 34.636719 124.832031 31.980469 121.171875 29.816406 121.714844 C 30.582031 124.613281 32.683594 129.332031 34.617188 130.230469 C 35.421875 129.292969 34.261719 127.515625 33.214844 125.679688 C 36.171875 128.410156 38.496094 132.648438 41.015625 136.4375 C 43.527344 140.214844 46.101562 143.566406 49.144531 144.339844 C 48.277344 142.515625 47.476562 140.671875 46.667969 138.839844 C 51.0625 143.980469 50.421875 150.265625 53.824219 150.488281 C 51.546875 150.015625 49.324219 149.480469 47.039062 148.945312 C 53.109375 153.1875 58.808594 160.320312 64.589844 164.070312 C 66.46875 162.53125 58.046875 157.070312 58.734375 157.058594 L 62.171875 158.207031 C 65.125 162.484375 65.382812 163.273438 65.796875 164.273438 C 66.222656 165.269531 66.792969 166.484375 70.730469 171.480469 L 71.988281 170.390625 C 73.15625 175.21875 84.765625 179.472656 78.613281 179.761719 L 76.828125 176.640625 L 75.660156 178.285156 C 79.511719 181.351562 83.417969 184.347656 87.375 187.273438 C 85.308594 187.429688 90.933594 191.832031 88.203125 192.050781 L 93.492188 194.285156 C 93.515625 198.09375 83.679688 190.265625 81.828125 191.425781 C 81.09375 192.527344 83.148438 194.136719 84.222656 194.84375 C 77.835938 191.976562 78.738281 186.113281 74.042969 181.574219 L 70.4375 180.605469 L 72.296875 178.945312 C 70.039062 177.390625 67.214844 176.917969 65.839844 176.921875 C 64.734375 173.433594 62.277344 171.167969 59.320312 168.765625 C 56.371094 166.363281 52.902344 163.828125 49.992188 159.875 C 56.371094 165.058594 48.386719 154.414062 49.828125 155.035156 C 48.417969 153.339844 45.144531 151.085938 42.277344 148.550781 C 39.398438 146.035156 36.941406 143.238281 37.078125 140.835938 C 36.550781 138.085938 41.667969 144.128906 38.550781 138.894531 C 36.054688 135.859375 33.46875 134.3125 33.914062 137.101562 C 28.308594 130.1875 23.445312 120.816406 19.617188 112.152344 L 22.042969 113.535156 C 20.835938 107.664062 16.898438 103.261719 14.238281 100.757812 C 14.652344 99.777344 14.054688 99.484375 15.246094 100.074219 C 15.382812 98.085938 15.070312 96.613281 14.582031 95.273438 C 14.328125 94.605469 13.996094 93.976562 13.625 93.34375 C 13.277344 92.710938 12.882812 92.074219 12.464844 91.398438 C 10.816406 88.714844 8.753906 85.242188 8.828125 78.980469 C 7.671875 79.359375 7.128906 80.992188 7.039062 83.039062 C 7.046875 84.0625 7.171875 85.179688 7.390625 86.28125 C 7.613281 87.378906 8.015625 88.457031 8.4375 89.410156 L 5.65625 88.765625 C 6.449219 94.390625 8.066406 100.25 10.238281 105.574219 C 12.40625 110.90625 15.109375 115.707031 17.824219 119.429688 C 16.617188 118.46875 15.421875 117.484375 14.261719 116.460938 C 14.253906 118.652344 14.671875 119.972656 15.207031 120.859375 C 15.746094 121.742188 16.410156 122.195312 17.09375 122.613281 C 18.460938 123.457031 19.621094 124.253906 19.710938 128.480469 C 23.246094 132.824219 18.941406 124.335938 21.957031 127.402344 C 23.230469 131.164062 17.433594 128.808594 20.6875 134.609375 C 13.632812 124.304688 7.324219 112.175781 3.707031 98.8125 C 1.933594 92.140625 0.742188 85.195312 0.613281 78.203125 C 0.460938 71.226562 1.140625 64.21875 2.847656 57.597656 C 2.527344 56.96875 1.914062 58.308594 1.457031 59.6875 C 1.25 58.417969 1.617188 56.15625 2.441406 53.230469 C 2.902344 51.792969 3.464844 50.183594 4.109375 48.433594 C 4.777344 46.691406 5.734375 44.875 6.660156 42.929688 C 7.101562 41.945312 7.714844 41 8.296875 40.015625 C 8.894531 39.042969 9.503906 38.042969 10.125 37.023438 C 10.777344 36.023438 11.539062 35.0625 12.265625 34.0625 C 13.023438 33.082031 13.703125 32.035156 14.589844 31.109375 C 15.4375 30.164062 16.292969 29.207031 17.15625 28.242188 C 18.007812 27.273438 19.027344 26.4375 19.960938 25.53125 C 21.804688 23.679688 23.988281 22.167969 26.023438 20.558594 C 30.328125 17.59375 34.875 15.191406 39.289062 13.402344 C 43.746094 11.738281 47.964844 10.433594 51.6875 9.691406 C 52.617188 9.492188 53.5 9.257812 54.355469 9.085938 C 55.210938 8.925781 56.023438 8.777344 56.792969 8.632812 C 57.566406 8.480469 58.289062 8.320312 58.964844 8.15625 C 59.644531 8.027344 60.277344 7.910156 60.851562 7.773438 C 63.160156 7.230469 64.628906 6.558594 64.941406 5.726562 C 66.316406 6.765625 61.894531 7.808594 67.691406 7.792969 C 68.222656 7.308594 69.777344 6.691406 68.425781 5.65625 C 75.855469 7.789062 84.152344 9.335938 92.644531 12.246094 C 101.09375 15.050781 109.566406 19.613281 115.621094 26.117188 C 115.824219 25.558594 116.824219 25.714844 117.792969 26.039062 C 118.761719 26.363281 119.757812 26.765625 120.058594 26.480469 C 120.414062 27.253906 120.867188 28 121.398438 28.730469 C 121.664062 29.097656 121.9375 29.472656 122.214844 29.855469 C 122.457031 30.171875 122.707031 30.496094 122.960938 30.828125 C 123.410156 31.390625 123.839844 31.855469 124.332031 32.351562 C 124.777344 32.867188 125.246094 33.359375 125.710938 33.839844 C 126.679688 34.777344 127.492188 35.742188 128.226562 36.726562 C 128.992188 37.695312 129.496094 38.820312 129.957031 40.175781 C 129.8125 39.195312 129.691406 38.246094 129.59375 37.335938 C 130.082031 38.15625 130.628906 38.941406 131.066406 39.785156 L 132.386719 42.324219 C 133.210938 40.730469 134.003906 39.117188 134.996094 37.617188 C 135.058594 36.691406 134.285156 37.90625 133.824219 38.359375 C 134.375 36.929688 134.757812 36.683594 135.101562 36.867188 C 135.441406 37.058594 135.71875 37.722656 135.9375 38.339844 C 136.753906 35.640625 137.304688 33.226562 137.789062 31.246094 C 138.453125 30.929688 139.113281 30.480469 139.875 30.035156 C 140.246094 29.804688 140.632812 29.542969 141.097656 29.183594 C 141.707031 28.683594 142.292969 28.152344 142.941406 27.683594 C 144.210938 26.722656 145.453125 25.714844 146.707031 24.699219 C 148.011719 23.75 149.308594 22.769531 150.605469 21.761719 C 155.894531 17.886719 161.601562 14.148438 167.855469 11.035156 C 174.101562 7.925781 180.902344 5.449219 188.023438 4.214844 C 195.117188 2.96875 202.539062 2.996094 209.472656 4.738281 C 214.011719 3.097656 218.136719 2.800781 225.417969 5.179688 C 224.324219 4.535156 223.238281 3.800781 222.089844 3.261719 C 224.121094 3.347656 225.117188 3.660156 225.609375 3.816406 C 226.097656 4.007812 226.054688 4.179688 225.960938 4.367188 C 225.78125 4.753906 225.425781 5.144531 228.691406 5.960938 C 231.039062 6.269531 231.761719 5.65625 231.054688 4.734375 C 230.703125 4.289062 230.011719 3.710938 228.976562 3.261719 C 227.9375 2.824219 226.582031 2.421875 224.988281 2.164062 C 223.265625 1.074219 222.988281 0.683594 223.566406 0.441406 C 224.140625 0.195312 225.511719 0.382812 226.980469 0.632812 C 230.035156 1.734375 232.914062 3.253906 235.746094 4.75 C 238.484375 6.429688 241.195312 8.097656 243.617188 10.113281 C 244.859375 11.074219 246.078125 12.042969 247.171875 13.140625 C 248.289062 14.207031 249.402344 15.269531 250.464844 16.351562 C 252.421875 18.664062 254.460938 20.871094 256.015625 23.332031 C 262.644531 32.960938 265.855469 43.34375 266.566406 52.710938"/></g><path fill="#CDAA90" d="M 278.9375 78.0625 C 278.378906 79.429688 278.191406 76.707031 277.761719 74.511719 C 277.269531 72.289062 276.636719 70.648438 275.632812 73.941406 C 274.667969 79.113281 273.769531 84.859375 272.496094 90.851562 C 271.234375 96.84375 269.601562 103.074219 267.496094 109.167969 C 263.308594 121.359375 257.152344 132.921875 249.964844 140.996094 C 245.449219 144.84375 244.554688 146.007812 240.902344 149.597656 C 241.15625 149.894531 241.546875 150.1875 242.035156 150.238281 C 238.628906 154.828125 233.464844 162.507812 228.9375 166.097656 C 228.269531 167.632812 228.875 169.710938 230.542969 167.0625 C 226.144531 174.746094 218.238281 176 215.996094 180.441406 C 219.726562 178.234375 214.382812 184.636719 218.503906 181.667969 C 212.429688 188.363281 208.445312 183.296875 202.953125 187.664062 C 203.007812 188.308594 203.050781 188.972656 204.167969 188.09375 C 200.484375 189.789062 196.535156 194.097656 192.949219 197.589844 C 189.371094 201.085938 186.21875 203.796875 184.429688 202.382812 L 183.339844 205.796875 C 179.847656 206.859375 179.839844 205.578125 175.207031 208.671875 C 172.878906 211.515625 176.382812 209.855469 175.796875 211.222656 C 173.488281 210.828125 166.460938 217.582031 161.414062 218.265625 C 159.464844 216.226562 169.929688 216.390625 171.71875 211.621094 C 171.472656 211.097656 170.878906 211.371094 170.144531 211.882812 C 179.230469 204.925781 188.226562 199.886719 196.546875 194.601562 C 204.835938 189.316406 212.464844 183.777344 218.214844 175.984375 C 222.550781 174.21875 223.34375 170.507812 223.09375 167.824219 C 220.167969 169.890625 212.167969 175.78125 214.835938 178.628906 C 212.851562 179.5 210.847656 180.335938 208.855469 181.160156 C 207.414062 182.914062 204.609375 180.066406 203.46875 180.289062 C 206.734375 177.65625 207.148438 171.625 202.28125 174.59375 C 205.863281 170.59375 206.757812 172.628906 207.523438 174.789062 C 208.265625 176.925781 208.863281 179.175781 211.84375 175.292969 L 210.734375 172.316406 C 210.605469 174.71875 217.285156 169.441406 218.636719 166.433594 L 217.347656 167.027344 C 226.40625 157.863281 235.902344 145.988281 243.628906 132.601562 C 251.40625 119.277344 257.152344 104.25 259.011719 90.140625 C 263.128906 87.28125 263.109375 81.609375 262.273438 76.347656 C 261.46875 70.996094 259.824219 66.175781 261.984375 62.28125 C 261.167969 60.78125 260.804688 62.054688 260.359375 62.917969 C 259.894531 63.796875 259.410156 64.261719 258.339844 61.429688 C 257.824219 60.015625 257.96875 59.144531 258.296875 58.613281 C 258.636719 58.078125 259.203125 57.886719 259.472656 57.886719 C 259.046875 57.046875 258.609375 56.199219 258.171875 55.339844 C 261.132812 53.316406 264.425781 52.824219 268.363281 55.945312 C 269.371094 56.714844 270.3125 57.730469 271.3125 58.992188 C 271.804688 59.621094 272.324219 60.3125 272.816406 61.078125 C 273.289062 61.84375 273.765625 62.679688 274.242188 63.582031 C 275.246094 65.390625 276.054688 67.496094 276.921875 69.90625 C 277.675781 72.3125 278.4375 75.035156 278.9375 78.0625"/></g></g></g><path fill="#FED" d="M 294.207031 122.09375 C 290.621094 129.746094 286.46875 130.617188 285.800781 130.671875 C 284.878906 130.722656 283.957031 130.671875 283.339844 129.953125 C 277.339844 122.863281 268.421875 118.960938 259.601562 119.476562 C 245.605469 120.296875 235.8125 127.382812 225.457031 134.882812 C 216.894531 141.09375 207.976562 147.515625 196.082031 151.058594 C 187.929688 153.472656 180.957031 154.140625 176.035156 154.140625 C 176.90625 154.5 177.828125 154.753906 178.75 154.910156 C 179.980469 155.113281 180.851562 156.296875 180.648438 157.527344 C 180.441406 158.761719 179.265625 159.632812 178.035156 159.429688 C 172.136719 158.453125 168.035156 154.601562 164.039062 150.851562 C 160.242188 147.308594 156.347656 143.613281 150.65625 142.070312 C 138.199219 138.734375 129.277344 145.664062 121.484375 153.625 C 114.304688 160.96875 111.332031 162.355469 94.566406 165.796875 C 91.183594 166.515625 88.519531 168.054688 86.929688 170.265625 C 89.03125 170.828125 90.160156 172.78125 89.902344 174.988281 C 89.59375 177.867188 87.75 179.355469 86.160156 180.175781 C 87.492188 183.257812 90.363281 186.492188 95.285156 189.164062 C 97.796875 190.5 101.695312 191.832031 106.460938 192.914062 L 106.511719 192.757812 C 106.511719 192.757812 106.460938 192.757812 106.410156 192.757812 C 106.511719 192.757812 108.769531 192.964844 111.792969 189.316406 C 113.484375 187.316406 113.433594 185.261719 113.433594 185.261719 C 113.382812 183.976562 114.304688 182.949219 115.589844 182.847656 C 116.871094 182.746094 117.894531 183.71875 117.996094 185.003906 C 117.996094 185.363281 118.101562 188.855469 115.28125 192.246094 C 114.664062 193.015625 114 193.683594 113.382812 194.195312 C 127.277344 196.199219 144.863281 195.582031 155.835938 188.085938 C 156.550781 187.570312 157.476562 187.570312 158.191406 187.980469 C 158.5 188.085938 158.859375 188.238281 159.117188 188.546875 C 162.34375 191.730469 168.34375 197.175781 170.804688 198.152344 C 171.832031 198.5625 172.445312 199.640625 172.1875 200.769531 C 171.777344 202.667969 170.136719 202.617188 168.394531 202.566406 C 167.472656 202.515625 166.191406 202.464844 164.652344 202.414062 C 159.117188 202.207031 150.757812 201.847656 147.632812 202.003906 C 146.347656 202.054688 144.65625 202.054688 142.710938 202.054688 C 137.378906 202.054688 129.378906 202.105469 126.199219 203.390625 C 123.792969 204.363281 121.996094 206.933594 122.304688 209.039062 C 122.664062 211.453125 125.894531 212.066406 127.789062 212.222656 C 127.945312 212.222656 128.097656 212.222656 128.304688 212.273438 C 128.355469 212.171875 128.40625 212.066406 128.457031 212.015625 C 128.816406 211.453125 129.890625 209.601562 130.148438 208.214844 C 130.355469 206.984375 131.585938 206.160156 132.816406 206.367188 C 134.046875 206.574219 134.867188 207.804688 134.660156 209.039062 C 134.457031 210.167969 133.992188 211.296875 133.582031 212.222656 C 134.199219 212.171875 134.8125 212.171875 135.480469 212.121094 C 139.324219 211.914062 143.632812 211.65625 148.605469 211.914062 C 150.398438 212.015625 152.707031 212.171875 155.371094 212.324219 C 165.625 213.042969 181.160156 214.121094 188.851562 212.425781 C 191.210938 211.914062 194.183594 210.835938 194.953125 208.574219 C 195.617188 206.726562 194.695312 204.570312 193.621094 203.234375 C 189.160156 197.585938 180.496094 191.371094 180.390625 191.320312 C 179.367188 190.601562 179.109375 189.164062 179.878906 188.136719 C 180.546875 187.160156 181.828125 186.902344 182.851562 187.46875 C 183.160156 187.570312 183.417969 187.726562 183.671875 187.929688 C 185.160156 189.265625 195.617188 194.503906 202.386719 196.25 C 217.152344 200.101562 230.839844 196.300781 237.609375 192.398438 C 236.480469 191.21875 235.402344 189.78125 234.480469 188.1875 C 231.351562 182.746094 231.816406 177.761719 232.738281 174.527344 C 234.019531 170.007812 237.042969 166.15625 240.785156 164.152344 C 241.914062 163.589844 243.300781 164 243.863281 165.128906 C 244.425781 166.257812 244.015625 167.644531 242.890625 168.210938 C 240.222656 169.597656 238.019531 172.523438 237.042969 175.8125 C 236.378906 178.171875 236.019531 181.871094 238.324219 185.929688 C 243.300781 194.554688 252.679688 195.222656 255.449219 195.222656 C 257.5 195.222656 259.757812 194.964844 261.753906 194.761719 C 265.34375 194.402344 266.832031 194.246094 267.90625 195.222656 C 268.421875 195.6875 268.726562 196.351562 268.726562 197.070312 C 268.726562 197.738281 268.472656 198.304688 268.011719 198.765625 C 267.496094 199.230469 266.675781 200.050781 257.242188 201.027344 C 251.296875 201.644531 245.195312 201.898438 240.375 201.847656 L 240.019531 201.847656 C 235.710938 201.746094 222.6875 201.488281 219.5625 206.46875 C 218.894531 207.496094 218.28125 208.988281 218.84375 210.066406 C 219.355469 210.988281 220.636719 211.707031 222.382812 212.171875 C 222.792969 212.066406 224.84375 211.554688 225.558594 208.933594 C 225.917969 207.703125 227.148438 206.984375 228.378906 207.34375 C 229.609375 207.703125 230.328125 208.933594 229.96875 210.167969 C 229.710938 211.144531 229.355469 211.964844 228.890625 212.683594 C 231.25 212.53125 233.710938 212.121094 236.273438 211.707031 C 239.554688 211.195312 242.992188 210.628906 246.273438 210.628906 C 247.503906 210.628906 249.246094 210.734375 251.398438 210.886719 C 260.78125 211.453125 278.160156 212.480469 286.160156 207.136719 C 293.851562 201.949219 293.183594 187.929688 289.03125 181.304688 C 283.441406 172.472656 275.1875 166.515625 273.085938 166.003906 C 271.855469 165.695312 271.085938 164.511719 271.394531 163.28125 C 271.703125 162.046875 272.882812 161.277344 274.113281 161.585938 C 276.46875 162.152344 280.878906 165.128906 285.339844 169.546875 C 290.980469 162.714844 292.414062 151.675781 288.929688 140.839844 C 288.929688 140.839844 288.929688 140.789062 288.929688 140.789062 C 288.875 140.632812 288.824219 140.53125 288.773438 140.375 C 288.464844 139.144531 289.234375 137.910156 290.464844 137.65625 C 290.671875 137.601562 296.515625 135.960938 299.183594 125.84375 C 301.488281 117.164062 298.875 110.28125 295.746094 105.609375 C 296.824219 110.28125 296.925781 116.34375 294.207031 122.09375 Z M 137.992188 163.898438 C 137.941406 164.308594 137.273438 168.109375 134.148438 170.058594 C 133.226562 170.625 131.941406 171.1875 130.148438 171.1875 C 129.226562 171.1875 128.199219 171.035156 127.074219 170.675781 C 122.613281 169.289062 121.332031 165.488281 121.277344 163.484375 C 121.226562 162.203125 122.253906 161.175781 123.484375 161.175781 C 124.714844 161.125 125.789062 162.152344 125.789062 163.382812 C 125.789062 163.742188 126.046875 165.644531 128.355469 166.363281 C 129.738281 166.773438 130.867188 166.773438 131.6875 166.257812 C 132.867188 165.539062 133.378906 163.84375 133.480469 163.230469 C 133.6875 161.996094 134.863281 161.175781 136.09375 161.328125 C 137.324219 161.484375 138.199219 162.664062 137.992188 163.898438 Z M 181.46875 174.835938 C 181.160156 178.019531 179.417969 180.84375 176.597656 182.796875 C 173.828125 184.695312 170.652344 185.570312 167.421875 185.570312 C 162.089844 185.570312 156.707031 183.257812 153.117188 179.816406 C 146.863281 173.859375 146.042969 164.511719 145.992188 164.152344 C 145.886719 162.921875 146.8125 161.792969 148.09375 161.6875 C 149.375 161.585938 150.449219 162.511719 150.554688 163.792969 C 150.554688 163.898438 151.324219 171.804688 156.246094 176.53125 C 160.550781 180.691406 168.550781 182.796875 173.984375 179.097656 C 175.675781 177.917969 176.699219 176.273438 176.90625 174.425781 C 177.058594 172.730469 176.496094 171.035156 175.265625 169.800781 C 174.1875 168.671875 172.394531 167.285156 170.496094 165.847656 C 166.753906 162.972656 162.5 159.738281 159.988281 155.578125 C 159.320312 154.5 159.679688 153.113281 160.757812 152.445312 C 161.832031 151.777344 163.21875 152.136719 163.882812 153.214844 C 165.984375 156.605469 169.832031 159.582031 173.265625 162.203125 C 175.265625 163.742188 177.214844 165.230469 178.546875 166.617188 C 180.699219 168.828125 181.777344 171.804688 181.46875 174.835938 Z M 181.46875 174.835938"/><path fill="#CDAA90" d="M 116.921875 156.296875 C 116.921875 156.296875 108.410156 163.898438 108.871094 168.46875 C 109.742188 176.53125 114.972656 177.917969 120.253906 179.664062 C 125.585938 181.410156 146.65625 180.226562 151.628906 181.304688 C 156.601562 182.382812 160.859375 185.003906 166.703125 184.59375 C 172.546875 184.183594 179.417969 181.5625 179.316406 176.324219 C 179.210938 171.085938 180.085938 168.570312 176.597656 165.746094 C 173.113281 162.921875 168.804688 154.703125 167.78125 152.289062 C 166.804688 149.875 157.679688 139.554688 147.476562 139.761719 C 137.273438 139.964844 128.148438 143.355469 122.816406 149.003906 C 117.484375 154.652344 116.921875 156.296875 116.921875 156.296875 Z M 116.921875 156.296875"/><path fill="#CDAA90" d="M 187.824219 151.210938 C 187.824219 151.210938 184.441406 153.933594 185.773438 159.582031 C 187.519531 167.082031 194.902344 169.238281 200.949219 167.851562 C 204.695312 166.976562 202.644531 171.910156 205.617188 175.246094 C 210.078125 180.226562 224.277344 179.917969 230.378906 169.289062 C 236.480469 158.660156 237.8125 137.601562 240.785156 131.132812 C 246.117188 119.628906 251.554688 119.371094 251.554688 119.371094 C 251.554688 119.371094 238.839844 121.015625 228.535156 129.589844 C 218.226562 138.167969 212.691406 142.429688 205.308594 145.460938 C 197.925781 148.492188 187.824219 151.210938 187.824219 151.210938 Z M 187.824219 151.210938"/><path fill="#CDAA90" d="M 262.730469 117.675781 C 262.730469 117.675781 263.242188 122.554688 254.425781 130.515625 C 251.347656 133.289062 243.453125 139.09375 244.324219 149.105469 C 245.246094 159.53125 259.398438 154.652344 266.574219 151.519531 C 277.75 146.640625 291.695312 133.03125 294.515625 127.792969 C 297.335938 122.554688 298.515625 115.777344 297.4375 110.386719 C 296.363281 104.992188 294.515625 102.835938 294.515625 102.835938 C 294.515625 102.835938 295.847656 114.289062 293.335938 117.984375 C 290.824219 121.683594 288.363281 130.925781 284.519531 127.332031 C 278.519531 121.632812 278.675781 121.117188 273.753906 119.371094 C 268.882812 117.675781 262.730469 117.675781 262.730469 117.675781 Z M 262.730469 117.675781"/><path fill="#BBBDBF" d="M 121.636719 206.574219 C 121.636719 206.574219 127.175781 204.777344 133.480469 205.082031 C 139.785156 205.390625 167.984375 206.625 173.316406 207.035156 C 178.648438 207.445312 182.441406 207.34375 182.238281 204.777344 C 182.03125 202.15625 175.417969 194.761719 174.085938 191.421875 C 172.804688 188.035156 174.496094 182.746094 180.597656 182.488281 C 186.699219 182.28125 194.441406 188.648438 205.667969 189.574219 C 229.710938 191.578125 234.53125 177.609375 234.53125 177.609375 L 241.503906 192.808594 C 241.503906 192.808594 232.6875 197.945312 227.507812 199.230469 C 222.277344 200.511719 209.820312 201.078125 203.207031 198.664062 C 196.59375 196.25 188.542969 190.703125 189.210938 193.117188 C 189.875 195.53125 195.515625 199.074219 197.003906 203.234375 C 198.542969 207.34375 196.695312 212.171875 193.621094 213.453125 C 190.59375 214.738281 170.394531 216.277344 160.960938 215.304688 C 151.527344 214.328125 141.835938 213.761719 136.660156 214.429688 C 131.429688 215.097656 123.328125 214.636719 120.921875 212.273438 C 118.511719 209.910156 121.636719 206.574219 121.636719 206.574219 Z M 121.636719 206.574219"/><path fill="#BBBDBF" d="M 218.175781 206.882812 C 218.175781 206.882812 219.816406 205.75 231.507812 205.597656 C 243.246094 205.441406 267.140625 204.828125 275.648438 203.183594 C 284.519531 201.488281 284.929688 195.273438 283.648438 191.371094 C 282.367188 187.46875 274.007812 179.199219 266.625 173.242188 C 262.628906 170.007812 259.140625 162.097656 265.5 157.273438 C 269.957031 153.832031 277.085938 156.914062 279.90625 158.761719 C 283.75 161.277344 289.390625 167.902344 289.390625 167.902344 L 286.46875 172.78125 C 286.46875 172.78125 293.386719 182.078125 294.261719 187.210938 C 295.132812 192.347656 295.644531 204.160156 289.390625 208.164062 C 283.136719 212.171875 273.34375 213.609375 263.960938 213.558594 C 254.578125 213.453125 243.863281 212.273438 236.582031 213.710938 C 229.355469 215.199219 220.84375 215.816406 217.921875 213.199219 C 215.050781 210.578125 217.253906 207.035156 218.175781 206.882812 Z M 218.175781 206.882812"/><path fill="#AE917D" d="M 173.726562 166.671875 C 178.035156 176.171875 164.292969 180.332031 154.398438 175.039062 C 155.578125 179.046875 162.5 184.851562 166.703125 184.542969 C 172.546875 184.128906 179.417969 181.511719 179.316406 176.273438 C 179.210938 171.136719 177.160156 169.496094 173.726562 166.671875 Z M 173.726562 166.671875"/><path fill="#AE917D" d="M 197.003906 157.375 C 207.207031 162.714844 215.101562 155.679688 219.304688 150.183594 C 229.96875 136.320312 231.867188 129.953125 241.300781 122.609375 C 239.144531 123.839844 230.636719 127.792969 228.535156 129.488281 C 218.226562 138.066406 212.691406 142.328125 205.308594 145.359375 C 201.359375 147 196.644531 148.542969 193.105469 149.621094 C 193.210938 152.753906 193.925781 155.628906 197.003906 157.375 Z M 197.003906 157.375"/><path fill="#CDAA90" d="M 251.195312 119.371094 C 251.398438 119.320312 251.5 119.320312 251.5 119.320312 C 251.5 119.320312 251.398438 119.320312 251.195312 119.371094 Z M 251.195312 119.371094"/><path fill="#AE917D" d="M 276.46875 131.75 C 284.519531 135.136719 290.925781 132.417969 294.15625 125.226562 C 295.132812 122.8125 298.363281 114.082031 296.003906 109.253906 C 295.847656 109.769531 293.59375 117.675781 293.335938 118.089844 C 290.824219 121.785156 288.363281 131.03125 284.519531 127.433594 C 278.519531 121.734375 278.675781 121.222656 273.753906 119.476562 C 272.007812 118.859375 267.085938 118.449219 265.34375 118.191406 C 265.550781 123.839844 270.265625 129.128906 276.46875 131.75 Z M 276.46875 131.75"/><g clip-path="url(#f)"><path fill="#3B2416" d="M 291.953125 94.617188 C 291.082031 94.003906 289.953125 94.105469 289.132812 94.773438 C 288.363281 95.441406 288.160156 96.621094 288.621094 97.546875 C 288.671875 97.648438 294.875 109.921875 290.054688 120.140625 C 288.363281 123.6875 286.773438 125.277344 285.851562 125.945312 C 278.929688 118.449219 269.136719 114.339844 259.292969 114.902344 C 243.964844 115.777344 233.660156 123.273438 222.738281 131.183594 C 214.484375 137.191406 205.925781 143.355469 194.746094 146.691406 C 179.777344 151.160156 169.0625 149.15625 168.804688 149.105469 C 168.804688 149.105469 168.753906 149.105469 168.753906 149.105469 C 168.242188 148.59375 167.675781 148.078125 167.113281 147.566406 C 163.113281 143.816406 158.601562 139.554688 151.785156 137.707031 C 137.019531 133.75 126.507812 141.96875 118.203125 150.492188 C 112 156.859375 110.050781 157.992188 93.644531 161.378906 C 86.46875 162.871094 81.597656 167.441406 80.726562 173.707031 C 79.648438 181.050781 84.417969 188.546875 93.132812 193.273438 C 99.183594 196.558594 110.921875 199.332031 123.382812 199.742188 C 119.691406 201.796875 117.332031 205.957031 117.84375 209.707031 C 118.152344 211.605469 119.636719 216.074219 127.429688 216.792969 C 129.738281 216.996094 132.507812 216.84375 135.738281 216.691406 C 139.480469 216.484375 143.683594 216.277344 148.398438 216.484375 C 150.144531 216.585938 152.449219 216.742188 155.066406 216.894531 C 161.371094 217.304688 169.574219 217.871094 176.957031 217.871094 C 181.929688 217.871094 186.492188 217.613281 189.824219 216.894531 C 196.132812 215.507812 198.4375 212.425781 199.257812 210.117188 C 200.335938 207.085938 199.566406 203.335938 197.207031 200.359375 C 196.847656 199.898438 196.4375 199.433594 196.082031 198.972656 C 197.925781 199.640625 199.71875 200.257812 201.257812 200.667969 C 205.925781 201.898438 210.539062 202.363281 214.84375 202.363281 C 215.613281 202.363281 216.433594 202.363281 217.203125 202.308594 C 216.691406 202.824219 216.230469 203.335938 215.871094 203.953125 C 213.511719 207.703125 214.074219 210.476562 215 212.171875 C 216.691406 215.355469 220.894531 217.101562 226.789062 217.203125 C 226.945312 217.203125 227.046875 217.203125 227.199219 217.203125 C 230.480469 217.203125 233.917969 216.636719 237.25 216.125 C 240.53125 215.613281 243.605469 215.097656 246.527344 215.097656 C 247.605469 215.097656 249.347656 215.199219 251.398438 215.304688 C 261.292969 215.917969 279.699219 216.996094 288.980469 210.785156 C 299.285156 203.851562 298.308594 186.902344 293.183594 178.738281 C 291.851562 176.632812 290.3125 174.628906 288.773438 172.78125 C 295.542969 165.078125 297.542969 153.164062 294.054688 140.992188 C 296.875 139.503906 301.539062 135.703125 303.898438 126.820312 C 309.078125 106.6875 292.15625 94.722656 291.953125 94.617188 Z M 299.386719 125.585938 C 296.722656 135.703125 290.875 137.347656 290.671875 137.398438 C 289.441406 137.707031 288.671875 138.886719 288.980469 140.121094 C 289.03125 140.273438 289.082031 140.425781 289.132812 140.53125 C 289.132812 140.53125 289.132812 140.582031 289.132812 140.582031 C 292.671875 151.417969 291.234375 162.457031 285.542969 169.289062 C 281.085938 164.871094 276.625 161.84375 274.316406 161.328125 C 273.085938 161.019531 271.855469 161.792969 271.597656 163.023438 C 271.292969 164.257812 272.0625 165.488281 273.292969 165.746094 C 275.445312 166.257812 283.648438 172.214844 289.234375 181.050781 C 293.386719 187.621094 294.054688 201.695312 286.363281 206.882812 C 278.367188 212.273438 260.933594 211.195312 251.605469 210.628906 C 249.398438 210.476562 247.65625 210.375 246.476562 210.375 C 243.195312 210.375 239.8125 210.9375 236.480469 211.453125 C 233.917969 211.863281 231.457031 212.273438 229.097656 212.425781 C 229.558594 211.707031 229.917969 210.886719 230.175781 209.910156 C 230.53125 208.679688 229.816406 207.445312 228.585938 207.085938 C 227.355469 206.777344 226.125 207.445312 225.765625 208.679688 C 225.046875 211.246094 222.996094 211.8125 222.585938 211.914062 C 220.84375 211.453125 219.5625 210.734375 219.046875 209.808594 C 218.433594 208.730469 219.101562 207.242188 219.765625 206.214844 C 222.894531 201.230469 235.917969 201.539062 240.222656 201.589844 L 240.582031 201.589844 C 245.347656 201.695312 251.5 201.386719 257.449219 200.769531 C 266.882812 199.792969 267.703125 198.972656 268.214844 198.511719 C 268.675781 198.046875 268.933594 197.433594 268.933594 196.816406 C 268.933594 196.097656 268.625 195.429688 268.113281 194.964844 C 266.984375 193.992188 265.550781 194.144531 261.960938 194.503906 C 259.960938 194.710938 257.707031 194.964844 255.65625 194.964844 C 252.886719 194.964844 243.453125 194.300781 238.53125 185.671875 C 236.222656 181.613281 236.53125 177.917969 237.25 175.554688 C 238.171875 172.269531 240.429688 169.390625 243.09375 167.953125 C 244.222656 167.390625 244.632812 166.003906 244.066406 164.871094 C 243.503906 163.742188 242.121094 163.332031 240.992188 163.898438 C 237.25 165.898438 234.222656 169.75 232.941406 174.269531 C 232.019531 177.507812 231.558594 182.488281 234.6875 187.929688 C 235.609375 189.574219 236.683594 190.960938 237.8125 192.140625 C 231.046875 196.046875 217.355469 199.792969 202.589844 195.992188 C 195.824219 194.246094 185.363281 189.007812 183.878906 187.675781 C 183.621094 187.46875 183.367188 187.316406 183.058594 187.210938 C 182.03125 186.648438 180.75 186.902344 180.085938 187.878906 C 179.367188 188.90625 179.570312 190.34375 180.597656 191.0625 C 180.699219 191.113281 189.363281 197.328125 193.824219 202.976562 C 194.902344 204.363281 195.824219 206.46875 195.15625 208.320312 C 194.335938 210.578125 191.363281 211.707031 189.054688 212.171875 C 181.367188 213.867188 165.832031 212.785156 155.578125 212.066406 C 152.910156 211.863281 150.65625 211.707031 148.808594 211.65625 C 143.886719 211.398438 139.53125 211.65625 135.683594 211.863281 C 135.019531 211.914062 134.402344 211.914062 133.789062 211.964844 C 134.25 211.039062 134.660156 209.910156 134.863281 208.78125 C 135.070312 207.546875 134.300781 206.367188 133.019531 206.109375 C 131.789062 205.90625 130.609375 206.675781 130.355469 207.960938 C 130.097656 209.398438 129.019531 211.195312 128.660156 211.757812 C 128.609375 211.863281 128.558594 211.964844 128.507812 212.015625 C 128.355469 212.015625 128.148438 212.015625 127.996094 211.964844 C 126.097656 211.8125 122.867188 211.144531 122.507812 208.78125 C 122.203125 206.726562 123.996094 204.160156 126.40625 203.132812 C 129.535156 201.847656 137.582031 201.847656 142.914062 201.796875 C 144.863281 201.796875 146.554688 201.796875 147.835938 201.746094 C 150.964844 201.589844 159.320312 201.949219 164.859375 202.15625 C 166.34375 202.207031 167.675781 202.257812 168.601562 202.308594 C 170.34375 202.363281 171.984375 202.414062 172.394531 200.511719 C 172.597656 199.433594 172.035156 198.304688 171.007812 197.894531 C 168.550781 196.917969 162.5 191.472656 159.320312 188.289062 C 159.0625 188.035156 158.757812 187.878906 158.398438 187.726562 C 157.679688 187.316406 156.757812 187.367188 156.039062 187.828125 C 145.066406 195.378906 127.484375 195.941406 113.589844 193.941406 C 114.203125 193.375 114.820312 192.757812 115.484375 191.988281 C 118.304688 188.597656 118.203125 185.105469 118.203125 184.746094 C 118.152344 183.464844 117.074219 182.488281 115.792969 182.589844 C 114.511719 182.640625 113.589844 183.71875 113.640625 185.003906 C 113.640625 185.003906 113.691406 187.058594 112 189.0625 C 108.972656 192.707031 106.71875 192.5 106.617188 192.5 C 106.667969 192.5 106.71875 192.5 106.71875 192.5 L 106.667969 192.65625 C 101.898438 191.578125 98.003906 190.242188 95.492188 188.90625 C 90.519531 186.234375 87.699219 183 86.363281 179.917969 C 87.902344 179.097656 89.75 177.609375 90.109375 174.734375 C 90.363281 172.523438 89.234375 170.523438 87.132812 170.007812 C 88.773438 167.851562 91.390625 166.257812 94.773438 165.539062 C 111.488281 162.097656 114.511719 160.710938 121.6875 153.367188 C 129.480469 145.359375 138.351562 138.476562 150.859375 141.8125 C 156.550781 143.355469 160.449219 147 164.242188 150.597656 C 168.191406 154.34375 172.292969 158.195312 178.238281 159.171875 C 179.46875 159.378906 180.648438 158.554688 180.851562 157.273438 C 181.058594 156.039062 180.238281 154.859375 178.957031 154.652344 C 177.980469 154.5 177.109375 154.242188 176.238281 153.882812 C 181.210938 153.882812 188.132812 153.214844 196.285156 150.800781 C 208.179688 147.257812 217.050781 140.839844 225.664062 134.625 C 236.019531 127.125 245.863281 119.988281 259.808594 119.21875 C 268.675781 118.703125 277.546875 122.660156 283.542969 129.695312 C 284.160156 130.464844 285.082031 130.515625 286.003906 130.414062 C 286.671875 130.363281 290.824219 129.488281 294.414062 121.835938 C 297.132812 116.085938 297.027344 110.027344 296.15625 105.09375 C 299.027344 110.027344 301.644531 116.90625 299.386719 125.585938 Z M 238.222656 197.125 C 239.351562 196.558594 240.375 195.992188 241.25 195.429688 C 242.273438 196.097656 243.300781 196.710938 244.324219 197.175781 C 243.09375 197.175781 241.8125 197.175781 240.632812 197.175781 L 240.273438 197.175781 C 239.660156 197.175781 238.992188 197.175781 238.222656 197.125 Z M 145.785156 197.433594 C 149.835938 196.351562 153.628906 194.8125 156.960938 192.808594 C 158.191406 193.992188 160.191406 195.890625 162.398438 197.738281 C 157.011719 197.535156 150.347656 197.277344 147.527344 197.433594 C 147.015625 197.378906 146.453125 197.433594 145.785156 197.433594 Z M 145.785156 197.433594"/></g><path fill="#3B2416" d="M 173.316406 162.152344 C 169.882812 159.53125 165.984375 156.554688 163.933594 153.164062 C 163.269531 152.085938 161.882812 151.726562 160.808594 152.394531 C 159.730469 153.0625 159.371094 154.449219 160.039062 155.527344 C 162.550781 159.6875 166.804688 162.921875 170.546875 165.796875 C 172.445312 167.234375 174.1875 168.570312 175.316406 169.75 C 176.496094 171.035156 177.109375 172.679688 176.957031 174.375 C 176.75 176.222656 175.726562 177.867188 174.035156 179.046875 C 168.652344 182.796875 160.652344 180.636719 156.296875 176.480469 C 151.324219 171.703125 150.605469 163.792969 150.605469 163.742188 C 150.503906 162.511719 149.425781 161.535156 148.144531 161.636719 C 146.914062 161.738281 145.9375 162.871094 146.042969 164.101562 C 146.09375 164.511719 146.914062 173.808594 153.167969 179.765625 C 156.757812 183.207031 162.140625 185.515625 167.472656 185.515625 C 170.652344 185.515625 173.878906 184.695312 176.648438 182.746094 C 179.46875 180.792969 181.210938 177.96875 181.519531 174.785156 C 181.828125 171.753906 180.800781 168.777344 178.648438 166.515625 C 177.265625 165.179688 175.367188 163.691406 173.316406 162.152344 Z M 173.316406 162.152344"/><path fill="#3B2416" d="M 136.09375 161.277344 C 134.863281 161.074219 133.6875 161.945312 133.480469 163.179688 C 133.378906 163.792969 132.867188 165.488281 131.6875 166.207031 C 130.867188 166.722656 129.789062 166.722656 128.355469 166.308594 C 126.046875 165.589844 125.789062 163.742188 125.789062 163.332031 C 125.738281 162.097656 124.714844 161.074219 123.484375 161.125 C 122.203125 161.175781 121.226562 162.203125 121.277344 163.433594 C 121.332031 165.4375 122.613281 169.238281 127.074219 170.625 C 128.199219 170.984375 129.226562 171.136719 130.148438 171.136719 C 131.941406 171.136719 133.277344 170.574219 134.148438 170.007812 C 137.273438 168.054688 137.941406 164.257812 137.992188 163.84375 C 138.199219 162.664062 137.324219 161.484375 136.09375 161.277344 Z M 136.09375 161.277344"/><g fill="#FF914D"><use x="111.008" y="258.436" xmlns:xlink="http://www.w3.org/1999/xlink" xlink:href="#g" xlink:type="simple" xlink:actuate="onLoad" xlink:show="embed"/></g><g fill="#FF914D"><use x="142.972" y="258.436" xmlns:xlink="http://www.w3.org/1999/xlink" xlink:href="#h" xlink:type="simple" xlink:actuate="onLoad" xlink:show="embed"/></g><g fill="#FF914D"><use x="172.118" y="258.436" xmlns:xlink="http://www.w3.org/1999/xlink" xlink:href="#i" xlink:type="simple" xlink:actuate="onLoad" xlink:show="embed"/></g><g fill="#3B2416"><use x="209.801" y="258.436" xmlns:xlink="http://www.w3.org/1999/xlink" xlink:href="#j" xlink:type="simple" xlink:actuate="onLoad" xlink:show="embed"/></g><g fill="#3B2416"><use x="243.023" y="258.436" xmlns:xlink="http://www.w3.org/1999/xlink" xlink:href="#h" xlink:type="simple" xlink:actuate="onLoad" xlink:show="embed"/></g><g fill="#3B2416"><use x="272.168" y="258.436" xmlns:xlink="http://www.w3.org/1999/xlink" xlink:href="#i" xlink:type="simple" xlink:actuate="onLoad" xlink:show="embed"/></g><g><use x="120.737" y="278.715" xmlns:xlink="http://www.w3.org/1999/xlink" xlink:href="#k" xlink:type="simple" xlink:actuate="onLoad" xlink:show="embed"/></g><g><use x="130.649" y="278.715" xmlns:xlink="http://www.w3.org/1999/xlink" xlink:href="#l" xlink:type="simple" xlink:actuate="onLoad" xlink:show="embed"/></g><g><use x="138.439" y="278.715" xmlns:xlink="http://www.w3.org/1999/xlink" xlink:href="#m" xlink:type="simple" xlink:actuate="onLoad" xlink:show="embed"/></g><g><use x="143.206" y="278.715" xmlns:xlink="http://www.w3.org/1999/xlink" xlink:href="#n" xlink:type="simple" xlink:actuate="onLoad" xlink:show="embed"/></g><g><use x="154.356" y="278.715" xmlns:xlink="http://www.w3.org/1999/xlink" xlink:href="#m" xlink:type="simple" xlink:actuate="onLoad" xlink:show="embed"/></g><g><use x="159.123" y="278.715" xmlns:xlink="http://www.w3.org/1999/xlink" xlink:href="#k" xlink:type="simple" xlink:actuate="onLoad" xlink:show="embed"/></g><g><use x="169.036" y="278.715" xmlns:xlink="http://www.w3.org/1999/xlink" xlink:href="#o" xlink:type="simple" xlink:actuate="onLoad" xlink:show="embed"/></g><g><use x="179.482" y="278.715" xmlns:xlink="http://www.w3.org/1999/xlink" xlink:href="#p" xlink:type="simple" xlink:actuate="onLoad" xlink:show="embed"/></g><g><use x="183.677" y="278.715" xmlns:xlink="http://www.w3.org/1999/xlink" xlink:href="#q" xlink:type="simple" xlink:actuate="onLoad" xlink:show="embed"/></g><g><use x="193.055" y="278.715" xmlns:xlink="http://www.w3.org/1999/xlink" xlink:href="#p" xlink:type="simple" xlink:actuate="onLoad" xlink:show="embed"/></g><g><use x="197.249" y="278.715" xmlns:xlink="http://www.w3.org/1999/xlink" xlink:href="#r" xlink:type="simple" xlink:actuate="onLoad" xlink:show="embed"/></g><g><use x="206.849" y="278.715" xmlns:xlink="http://www.w3.org/1999/xlink" xlink:href="#q" xlink:type="simple" xlink:actuate="onLoad" xlink:show="embed"/></g><g><use x="216.227" y="278.715" xmlns:xlink="http://www.w3.org/1999/xlink" xlink:href="#s" xlink:type="simple" xlink:actuate="onLoad" xlink:show="embed"/></g><g><use x="224.603" y="278.715" xmlns:xlink="http://www.w3.org/1999/xlink" xlink:href="#t" xlink:type="simple" xlink:actuate="onLoad" xlink:show="embed"/></g><g><use x="233.538" y="278.715" xmlns:xlink="http://www.w3.org/1999/xlink" xlink:href="#u" xlink:type="simple" xlink:actuate="onLoad" xlink:show="embed"/></g><g><use x="244.675" y="278.715" xmlns:xlink="http://www.w3.org/1999/xlink" xlink:href="#v" xlink:type="simple" xlink:actuate="onLoad" xlink:show="embed"/></g><g><use x="256.059" y="278.715" xmlns:xlink="http://www.w3.org/1999/xlink" xlink:href="#r" xlink:type="simple" xlink:actuate="onLoad" xlink:show="embed"/></g></svg>